<svg width="120" height="120" viewBox="0 0 120 120" fill="none" xmlns="http://www.w3.org/2000/svg">
<circle cx="60" cy="60" r="60" fill="#342679" fill-opacity="0.7"/>
<g clip-path="url(#clip0_61:3372)">
<path d="M70.034 75.92C69.6191 75.92 69.2444 75.6478 69.1099 75.257C68.9829 74.8878 69.0973 74.4666 69.3901 74.2094C69.7094 73.9288 70.1883 73.8892 70.5494 74.1137C70.8851 74.3225 71.0664 74.7288 70.995 75.1181C70.9109 75.5758 70.5001 75.92 70.034 75.92Z" fill="white"/>
<path d="M77.8929 52.997C76.0618 50.5487 73.5854 48.8202 70.9199 48.1298C69.1471 47.671 67.0041 47.7096 64.5493 48.2449L64.5492 48.2443C64.5382 48.2469 64.5151 48.2522 64.478 48.2605C64.4138 48.2734 64.3505 48.2881 64.2886 48.3026C64.1345 48.3386 63.8971 48.3955 63.6427 48.4617C63.309 48.5481 62.9699 48.6234 62.6317 48.6863C62.6265 48.4334 62.617 48.1736 62.6022 47.9079C62.8913 44.6882 64.1982 41.921 66.4981 39.6664C68.4886 37.7151 70.5197 36.8931 70.538 36.8858C71.0399 36.6885 71.287 36.1216 71.0898 35.6196C70.8925 35.1176 70.3256 34.8707 69.8237 35.0679C69.7283 35.1055 67.4613 36.0113 65.1927 38.2114C63.991 39.3769 62.6572 41.0467 61.7357 43.2877C61.2436 41.893 60.5028 40.5582 59.4047 39.4612C54.9782 35.0397 46.6826 36.4164 46.1938 36.5023C46.1934 36.5024 46.193 36.5024 46.1926 36.5025C45.8348 36.5597 45.5342 36.8097 45.4283 37.1562C45.4127 37.2072 45.4002 37.2549 45.393 37.2946C45.3369 37.6101 44.1998 44.2648 47.0646 48.8711C43.1001 50.7723 38.9102 55.476 38.9102 63.2933C38.9102 66.0662 39.7551 69.4555 41.2894 72.8366C42.7927 76.1493 44.8229 79.1764 47.006 81.36C49.3846 83.7413 51.8286 85 54.0736 85C55.3884 85 56.7429 84.8011 57.9913 84.4244C59.221 84.0527 60.527 84.029 61.7688 84.356C61.7731 84.3572 61.7775 84.3583 61.7818 84.3594C61.8586 84.3797 61.935 84.4014 62.0119 84.4246C63.2597 84.801 64.6142 85 65.9289 85C68.077 85 70.4183 83.8418 72.6992 81.651C77.4056 77.1366 81.0923 69.073 81.0923 63.2933C81.0919 59.3554 79.9858 55.795 77.8929 52.997ZM58.024 40.8431C59.891 42.7082 60.5001 45.5537 60.6401 47.9457C60.6055 48.3849 60.5874 50.3034 60.5874 50.3034L53.1802 42.9042C52.7986 42.523 52.1802 42.5232 51.7991 42.905C51.418 43.2865 51.4183 43.9048 51.7998 44.2861L59.2585 51.7367C56.7077 51.8734 52.2943 51.6796 49.7336 49.1217C46.6581 46.0495 46.9961 40.3167 47.2211 38.333C49.2066 38.1082 54.9476 37.7699 58.024 40.8431ZM71.3463 80.2419C69.4358 82.0769 67.5622 83.0469 65.9285 83.0469C64.8183 83.0469 63.6276 82.8721 62.5759 82.5549C62.4785 82.5254 62.3806 82.4978 62.2825 82.4718C62.2809 82.4714 62.2795 82.4709 62.278 82.4705C60.6832 82.0484 59.0053 82.0775 57.4263 82.5547C56.3741 82.8721 55.1833 83.0469 54.0732 83.0469C52.3578 83.0469 50.3917 81.9863 48.3871 79.9793C44.1678 75.7591 40.8629 68.4296 40.8629 63.2933C40.8629 56.1159 44.7747 51.9521 48.3035 50.4533C48.32 50.4701 48.3367 50.4869 48.3534 50.5036C51.0302 53.1775 55.142 53.7272 58.0711 53.7271C59.929 53.7271 61.3134 53.5167 61.5485 53.4653C62.3284 53.2946 62.3093 52.9311 62.3579 52.7067C62.3585 52.7038 62.3591 52.701 62.3597 52.6982C62.3604 52.695 62.361 52.6918 62.3617 52.6887C62.3625 52.6847 62.3632 52.6807 62.364 52.6766C62.3643 52.6748 62.3647 52.6732 62.365 52.6714C62.3833 52.5694 62.515 51.805 62.588 50.6614C62.6453 50.6617 62.7033 50.6572 62.7616 50.6472C63.2191 50.5687 63.6802 50.4696 64.1332 50.3523C64.3074 50.3069 64.4759 50.2656 64.616 50.2323C68.6446 51.6371 72.6286 56.1682 72.6286 63.2934C72.6286 65.3806 72.0902 67.8696 71.0716 70.4914C70.8763 70.994 71.1255 71.56 71.6282 71.7553C71.7444 71.8004 71.8641 71.8219 71.9816 71.8219C72.3728 71.8219 72.742 71.5852 72.8922 71.1986C73.9974 68.3536 74.5817 65.6201 74.5817 63.2934C74.5817 56.803 71.5969 52.1841 67.9939 49.7669C68.8904 49.7483 69.7047 49.8328 70.4305 50.0206C74.6248 51.1069 79.139 55.7236 79.139 63.2933C79.1388 68.5173 75.6433 76.1203 71.3463 80.2419Z" fill="white"/>
</g>
<defs>
<clipPath id="clip0_61:3372">
<rect width="50" height="50" fill="white" transform="translate(35 35)"/>
</clipPath>
</defs>
</svg>
