<svg width="120" height="120" viewBox="0 0 120 120" fill="none" xmlns="http://www.w3.org/2000/svg">
<circle cx="60" cy="60" r="60" fill="#342679" fill-opacity="0.7"/>
<path d="M84.1688 53.8048C84.0079 52.9259 83.4852 52.1611 82.6969 51.6517C82.3243 51.4111 81.9352 51.2017 81.5384 51.0079C83.2641 50.4876 84.4493 48.754 84.1805 46.9767C84.0485 46.1064 83.586 45.3579 82.8774 44.8689C82.7962 44.8126 82.7055 44.7767 82.6204 44.729C82.6188 44.7189 82.6196 44.7087 82.618 44.6986C82.486 43.8282 82.0235 43.0798 81.3149 42.5907C80.5798 42.0829 79.668 41.9142 78.7532 42.1103C78.3516 42.1962 77.9548 42.3056 77.5634 42.4368C77.6946 42.0454 77.804 41.6486 77.8899 41.247C78.0876 40.3298 77.9165 39.4196 77.4095 38.6853C76.9204 37.9767 76.1719 37.5142 75.2993 37.3814C75.2899 37.3798 75.2805 37.3806 75.2704 37.379C75.2227 37.2939 75.1868 37.2032 75.1305 37.1228C74.6415 36.4142 73.893 35.9517 73.0219 35.8196C71.2477 35.5493 69.5118 36.7353 68.9915 38.4626C68.7977 38.0657 68.5884 37.6767 68.3477 37.304C67.8384 36.5157 67.0735 35.9931 66.1946 35.8321C65.3469 35.6782 64.4915 35.8798 63.7837 36.4017C62.2071 37.5618 61.8696 39.915 63.0454 41.54C63.7829 42.5587 64.4266 43.6696 64.9563 44.8407L65.1204 45.2032C61.9563 44.8993 58.8298 46.0048 56.5329 48.3017C55.9774 48.8571 55.4813 49.4759 55.0587 50.1415L36.2212 79.8423C35.5009 80.9782 35.6626 82.4345 36.6134 83.3845C37.1665 83.9384 37.8915 84.2243 38.6251 84.2243C39.1509 84.2243 39.6813 84.0775 40.1548 83.7767L69.8594 64.94C70.5251 64.5181 71.1438 64.022 71.7024 63.4626C73.9962 61.1689 75.1001 58.0439 74.7962 54.8782L75.1594 55.0423C76.3305 55.5728 77.4415 56.2157 78.461 56.954C79.1157 57.4275 79.8884 57.6548 80.6548 57.6548C81.7884 57.6548 82.9063 57.1548 83.5993 56.2142C84.1212 55.5079 84.3235 54.6509 84.1688 53.8048ZM80.8227 49.5907C80.1087 49.704 79.393 49.8642 78.6884 50.0564C77.3946 49.8079 76.0493 49.772 74.7055 49.9736L74.5782 49.9931L74.736 49.779C76.1829 47.8189 78.3352 46.4103 80.6438 45.9157C81.136 45.8087 81.6134 45.8946 81.9907 46.1548C82.3399 46.397 82.5696 46.772 82.6368 47.2118C82.8009 48.297 81.9532 49.4087 80.8227 49.5907ZM79.0813 43.6368C79.5743 43.5298 80.0516 43.6157 80.4282 43.8759C80.6016 43.9962 80.7454 44.1493 80.8548 44.3267C80.6759 44.3368 80.4969 44.3501 80.3165 44.3884C77.6024 44.9704 75.1743 46.5556 73.4798 48.8517L72.3946 50.3228L70.4954 50.6095L76.504 44.6009C77.3243 44.154 78.1907 43.8275 79.0813 43.6368ZM75.6102 39.6829C75.6493 39.5025 75.6626 39.3236 75.6727 39.1454C75.8501 39.2548 76.0032 39.3978 76.1227 39.5712C76.3821 39.9478 76.4673 40.4259 76.3618 40.9181C76.1696 41.8111 75.8438 42.6775 75.3969 43.497L69.3899 49.504L69.6766 47.6048L71.1477 46.5196C73.443 44.8251 75.0282 42.397 75.6102 39.6829ZM70.4079 39.1767C70.5891 38.0462 71.7063 37.2017 72.7868 37.3626C73.2266 37.4298 73.6024 37.6595 73.8446 38.0087C74.104 38.3853 74.1891 38.8634 74.0837 39.3556C73.5884 41.6634 72.1798 43.8165 70.2204 45.2634L70.0063 45.4212L70.0259 45.2939C70.2282 43.9501 70.1923 42.6048 69.943 41.3103C70.1344 40.6056 70.2946 39.8892 70.4079 39.1767ZM64.3102 40.622C63.6391 39.6939 63.8251 38.3087 64.7094 37.6571C64.9907 37.4509 65.3141 37.3423 65.6423 37.3423C65.7321 37.3423 65.8227 37.3509 65.9134 37.3673C66.3634 37.4493 66.7618 37.7275 67.0352 38.1501C68.3173 40.1321 68.843 42.6509 68.4805 45.0595L68.0532 47.8931L66.3798 44.1954C65.8055 42.9275 65.1087 41.7259 64.3102 40.622ZM70.5946 62.3618C70.1204 62.8361 69.5915 63.2595 69.0227 63.6204L39.318 82.4571C38.8055 82.7829 38.1477 82.7087 37.718 82.2798C37.2884 81.8501 37.2149 81.1923 37.5407 80.679L56.3759 50.9759C56.7376 50.4064 57.161 49.8782 57.6391 49.3993C59.8204 47.2189 62.8813 46.3118 65.8891 46.904L67.7173 50.9439C67.7571 51.0314 67.8157 51.1048 67.8805 51.1704L67.8766 51.1743L68.8212 52.1189L68.8235 52.1165C68.8891 52.1821 68.9634 52.2392 69.0516 52.2782L73.0923 54.1064C73.6876 57.1173 72.779 60.1775 70.5946 62.3618ZM82.3415 55.29C81.6891 56.1736 80.3048 56.3587 79.3774 55.69C78.2727 54.8907 77.0712 54.1939 75.804 53.6204L72.1063 51.947L74.9399 51.5196C77.3477 51.1548 79.868 51.6829 81.8493 52.965C82.2719 53.2384 82.5493 53.6361 82.6321 54.0868C82.7079 54.504 82.6048 54.9314 82.3415 55.29Z" fill="white"/>
<path d="M61.7242 58.2758C60.1086 56.6602 59.2187 54.5117 59.2187 52.2266V52.1875L57.6562 52.2266C57.6562 54.9289 58.7086 57.4695 60.6195 59.3805C62.5305 61.2914 65.0711 62.3438 67.8125 62.3438L67.7734 60.7812C65.4883 60.7812 63.3398 59.8914 61.7242 58.2758Z" fill="white"/>
<path d="M57.293 62.4383C56.0156 61.1609 55.3125 59.4625 55.3125 57.6562H53.75C53.75 59.8805 54.6156 61.9703 56.1883 63.543L56.457 63.8117C58.0297 65.3844 60.1195 66.25 62.3438 66.25V64.6875C60.5375 64.6875 58.8391 63.9844 57.5617 62.707L57.293 62.4383Z" fill="white"/>
<path d="M53.1305 66.8695C52.0188 65.757 51.4062 64.2797 51.4062 62.707V62.3438H49.8438V62.707C49.8438 64.6969 50.6187 66.5672 52.0258 67.9742C53.4328 69.3812 55.3031 70.1562 57.293 70.1562H57.6562V68.5937H57.293C55.7203 68.5937 54.243 67.9812 53.1305 66.8695Z" fill="white"/>
<path d="M48.0523 71.9477C47.6961 71.5914 47.5 71.1172 47.5 70.6141V69.375H45.9375V70.6141C45.9375 71.5352 46.2961 72.4008 46.9477 73.0523C47.5992 73.7039 48.4648 74.0625 49.3859 74.0625H50.625V72.5H49.3859C48.8828 72.5 48.4086 72.3039 48.0523 71.9477Z" fill="white"/>
</svg>
