<svg width="120" height="120" viewBox="0 0 120 120" fill="none" xmlns="http://www.w3.org/2000/svg">
<circle cx="60" cy="60" r="60" fill="#342679" fill-opacity="0.7"/>
<path d="M79.1472 56.5132C78.2288 52.4636 76.6246 48.4963 74.508 45.0401C71.4682 40.0753 67.3676 35 60.001 35C56.7212 35 53.8859 35.9759 51.3335 37.9834C49.3054 39.5783 47.5041 41.7547 45.4925 45.04C43.3758 48.4964 41.7715 52.4638 40.853 56.5133C39.9646 60.4302 39.7312 64.3347 40.1781 67.8049C40.606 71.1265 41.6116 74.0493 43.1672 76.4922C44.5315 78.6349 46.323 80.4199 48.492 81.7975C52.879 84.5839 57.5857 85 60.001 85C62.4161 85 67.1227 84.5839 71.5093 81.7974C73.6779 80.4197 75.4692 78.6348 76.8334 76.492C78.3887 74.0491 79.3943 71.1264 79.8222 67.8046C80.269 64.3345 80.0356 60.43 79.1472 56.5132ZM76.5882 67.3882C75.9066 72.6781 73.6095 76.6 69.7607 79.0449C65.9327 81.4767 61.6601 81.7392 60.001 81.7392C58.3416 81.7392 54.0688 81.4767 50.2404 79.0449C46.3911 76.5999 44.0938 72.678 43.4125 67.3883C42.5786 60.9114 44.4411 53.0007 48.2736 46.7429C50.0497 43.8421 51.6625 41.8732 53.3495 40.5466C55.305 39.0085 57.4806 38.2609 60.0011 38.2609C62.5206 38.2609 64.696 39.0086 66.6513 40.5465C68.3383 41.8733 69.9512 43.8423 71.7271 46.743C75.5593 53.0006 77.4219 60.9114 76.5882 67.3882Z" fill="white"/>
<path d="M69.3646 49.3945L66.8164 51.4293C69.8323 55.2062 71.4772 64.6301 68.9663 68.7345L71.7479 70.4362C75.0578 65.0261 73.1723 54.1631 69.3646 49.3945Z" fill="white"/>
</svg>
