<svg width="241" height="38" viewBox="0 0 241 38" fill="none" xmlns="http://www.w3.org/2000/svg">
<path d="M46.7188 29.8125C45.6771 29.8125 44.7292 29.5625 43.875 29.0625C43.0417 28.5625 42.3229 27.875 41.7188 27C41.1354 26.125 40.6875 25.1042 40.375 23.9375C40.0833 22.75 39.9583 21.4896 40 20.1562C40.0417 18.9062 40.1979 17.5521 40.4688 16.0938C40.7604 14.6354 41.1667 13.1771 41.6875 11.7188C42.2083 10.2396 42.8333 8.82292 43.5625 7.46875C44.3125 6.09375 45.1667 4.88542 46.125 3.84375C47.0833 2.80208 48.1458 1.96875 49.3125 1.34375C50.4792 0.697917 51.7604 0.375 53.1562 0.375C54.0104 0.375 54.7292 0.552083 55.3125 0.90625C55.9167 1.23958 56.3958 1.6875 56.75 2.25C57.125 2.8125 57.3854 3.44792 57.5312 4.15625C57.6771 4.86458 57.7396 5.58333 57.7188 6.3125C57.6771 7 57.5729 7.66667 57.4062 8.3125C57.2604 8.95833 57.0417 9.54167 56.75 10.0625C56.4792 10.5625 56.1354 10.9688 55.7188 11.2812C55.3229 11.5729 54.8646 11.7188 54.3438 11.7188C54.0938 11.6979 53.8542 11.6146 53.625 11.4688C53.4167 11.3438 53.1979 11.1562 52.9688 10.9062C52.7604 10.6562 52.5625 10.2917 52.375 9.8125C52.9375 9.58333 53.375 9.1875 53.6875 8.625C54.0208 8.04167 54.2708 7.4375 54.4375 6.8125C54.625 6.10417 54.75 5.3125 54.8125 4.4375C54.8542 3.58333 54.6771 2.95833 54.2812 2.5625C53.8854 2.16667 53.4375 1.96875 52.9375 1.96875C51.9583 1.96875 50.9271 2.47917 49.8438 3.5C48.7604 4.52083 47.75 5.90625 46.8125 7.65625C45.8958 9.38542 45.1146 11.4062 44.4688 13.7188C43.8438 16.0312 43.4792 18.4792 43.375 21.0625C43.3333 22.2292 43.4062 23.2188 43.5938 24.0312C43.8021 24.8438 44.0833 25.5104 44.4375 26.0312C44.8125 26.5521 45.2292 26.9271 45.6875 27.1562C46.1458 27.3854 46.6042 27.5 47.0625 27.5C47.7917 27.5 48.4792 27.3438 49.125 27.0312C49.7708 26.7188 50.3542 26.3333 50.875 25.875C51.4167 25.4167 51.875 24.9375 52.25 24.4375C52.6458 23.9583 52.9479 23.5312 53.1562 23.1562C53.3021 22.8854 53.4583 22.7188 53.625 22.6562C53.7917 22.5938 53.9375 22.6146 54.0625 22.7188C54.1875 22.8021 54.2708 22.9479 54.3125 23.1562C54.3542 23.3438 54.3125 23.5729 54.1875 23.8438C53.8333 24.5521 53.3958 25.2604 52.875 25.9688C52.375 26.6771 51.8021 27.3125 51.1562 27.875C50.5312 28.4583 49.8438 28.9271 49.0938 29.2812C48.3438 29.6354 47.5521 29.8125 46.7188 29.8125ZM61.4375 24.5C60.6458 24.5 60 24.375 59.5 24.125C59 23.875 58.6042 23.5729 58.3125 23.2188C58.0417 22.8438 57.8438 22.4479 57.7188 22.0312C57.6146 21.5938 57.5625 21.1979 57.5625 20.8438C57.5625 20.2188 57.6146 19.5625 57.7188 18.875C57.8229 18.1667 57.9479 17.5208 58.0938 16.9375C58.2396 16.3333 58.3646 15.8229 58.4688 15.4062C58.5938 14.9896 58.6771 14.7292 58.7188 14.625C58.9062 14.0208 59.1458 13.5 59.4375 13.0625C59.75 12.6042 60.1771 12.2917 60.7188 12.125C60.9271 12.0833 61.1458 12.0417 61.375 12C61.5625 11.9792 61.75 11.9688 61.9375 11.9688C62.1458 11.9688 62.3333 12 62.5 12.0625C61.9375 13.5 61.4896 14.6979 61.1562 15.6562C60.8438 16.6146 60.6042 17.3958 60.4375 18C60.25 18.6875 60.1354 19.2396 60.0938 19.6562C59.9896 20.5938 60.0729 21.3021 60.3438 21.7812C60.6146 22.2604 61.1667 22.5 62 22.5C62.5417 22.5 63.0625 22.3021 63.5625 21.9062C64.0625 21.4896 64.5208 20.9583 64.9375 20.3125C64.875 19.9792 64.8438 19.6354 64.8438 19.2812C64.8438 18.6146 64.8958 17.9688 65 17.3438C65.125 16.6979 65.2604 16.1042 65.4062 15.5625C65.5729 15 65.7396 14.5 65.9062 14.0625C66.0938 13.625 66.25 13.2812 66.375 13.0312C66.6042 12.5312 66.8125 12.2292 67 12.125C67.1875 12 67.4896 11.9271 67.9062 11.9062C68.0729 11.8854 68.2083 11.8854 68.3125 11.9062C68.4375 11.9062 68.5417 11.9167 68.625 11.9375C68.875 12 69 12.125 69 12.3125C69 12.6458 68.9792 13.1458 68.9375 13.8125C68.8958 14.4792 68.7708 15.1667 68.5625 15.875C68.4167 16.4583 68.2708 16.9583 68.125 17.375C68 17.7708 67.875 18.1146 67.75 18.4062C67.625 18.6771 67.5 18.9062 67.375 19.0938C67.25 19.2604 67.1354 19.4167 67.0312 19.5625C67.0729 20.1875 67.125 20.6875 67.1875 21.0625C67.25 21.4375 67.3229 21.7292 67.4062 21.9375C67.5104 22.125 67.625 22.2604 67.75 22.3438C67.8958 22.4062 68.0521 22.4375 68.2188 22.4375C68.5104 22.4375 68.8542 22.3021 69.25 22.0312C69.6458 21.7396 70.0521 21.3854 70.4688 20.9688C70.9062 20.5312 71.3333 20.0625 71.75 19.5625C72.1875 19.0417 72.5833 18.5521 72.9375 18.0938C73.2917 17.6354 73.5938 17.2396 73.8438 16.9062C74.0938 16.5521 74.25 16.3333 74.3125 16.25C74.4583 16.0625 74.5938 15.9479 74.7188 15.9062C74.8646 15.8646 74.9792 15.8854 75.0625 15.9688C75.1458 16.0312 75.1875 16.1458 75.1875 16.3125C75.2083 16.4583 75.1667 16.625 75.0625 16.8125C74.6458 17.6042 74.125 18.4479 73.5 19.3438C72.8958 20.2188 72.2396 21.0312 71.5312 21.7812C70.8438 22.5312 70.1458 23.1562 69.4375 23.6562C68.7292 24.1562 68.0625 24.4062 67.4375 24.4062C66.875 24.4062 66.4271 24.2188 66.0938 23.8438C65.7812 23.4479 65.5104 22.8854 65.2812 22.1562C64.8021 22.9062 64.2396 23.4896 63.5938 23.9062C62.9479 24.3021 62.2292 24.5 61.4375 24.5ZM72.0938 23.5C73.0104 19.6458 73.7396 16.5521 74.2812 14.2188C74.8438 11.8854 75.2708 10.1042 75.5625 8.875C75.8958 7.41667 76.125 6.40625 76.25 5.84375C76.3125 5.44792 76.3646 5.0625 76.4062 4.6875C76.4479 4.35417 76.4688 4.01042 76.4688 3.65625C76.4688 3.30208 76.4375 2.97917 76.375 2.6875C76.5417 2.58333 76.7188 2.5 76.9062 2.4375C77.1146 2.375 77.3125 2.32292 77.5 2.28125C77.7292 2.21875 77.9583 2.16667 78.1875 2.125C78.4167 2.08333 78.625 2.0625 78.8125 2.0625C78.9792 2.0625 79.1354 2.08333 79.2812 2.125C79.4271 2.14583 79.5208 2.20833 79.5625 2.3125C79.6875 2.41667 79.7396 2.625 79.7188 2.9375C79.7188 3.25 79.6979 3.57292 79.6562 3.90625C79.5729 4.30208 79.4792 4.72917 79.375 5.1875C79.125 6.08333 78.7812 7.375 78.3438 9.0625C77.9688 10.5 77.4583 12.4583 76.8125 14.9375C76.1875 17.4167 75.3958 20.5417 74.4375 24.3125C74.3333 24.4167 74.2083 24.4896 74.0625 24.5312C73.9167 24.5729 73.7812 24.5938 73.6562 24.5938C73.5104 24.5938 73.3542 24.5833 73.1875 24.5625C73.0417 24.5208 72.8958 24.4583 72.75 24.375C72.625 24.2917 72.5 24.1771 72.375 24.0312C72.25 23.9062 72.1562 23.7292 72.0938 23.5ZM86.4375 5.59375C86.375 5.82292 86.25 6.05208 86.0625 6.28125C85.8958 6.48958 85.6979 6.66667 85.4688 6.8125C85.2604 6.9375 85.0417 7.02083 84.8125 7.0625C84.5833 7.10417 84.3958 7.0625 84.25 6.9375C83.8125 6.60417 83.5833 6.25 83.5625 5.875C83.5417 5.47917 83.6354 5.11458 83.8438 4.78125C84.0521 4.42708 84.3125 4.13542 84.625 3.90625C84.9375 3.65625 85.2083 3.51042 85.4375 3.46875C85.6667 3.42708 85.8542 3.47917 86 3.625C86.1667 3.75 86.2917 3.92708 86.375 4.15625C86.4583 4.36458 86.5 4.60417 86.5 4.875C86.5208 5.14583 86.5 5.38542 86.4375 5.59375ZM82.125 12.25C82.2292 12.125 82.4271 12.0208 82.7188 11.9375C83.0104 11.8542 83.3125 11.7917 83.625 11.75C83.9375 11.6875 84.2188 11.6562 84.4688 11.6562C84.7396 11.6354 84.8958 11.6354 84.9375 11.6562C84.9583 11.6771 84.9062 11.8958 84.7812 12.3125C84.6562 12.7292 84.5 13.2188 84.3125 13.7812C84.125 14.3438 83.9271 14.9271 83.7188 15.5312C83.5104 16.1146 83.3542 16.5938 83.25 16.9688C83.1458 17.3438 83.0208 17.7708 82.875 18.25C82.7292 18.7083 82.5938 19.1667 82.4688 19.625C82.3646 20.0625 82.2917 20.4792 82.25 20.875C82.2083 21.2708 82.2396 21.5729 82.3438 21.7812C82.4479 22.0312 82.5625 22.2083 82.6875 22.3125C82.8125 22.3958 82.9479 22.4375 83.0938 22.4375C83.5104 22.4375 84.0312 22.2083 84.6562 21.75C85.3021 21.2917 85.9479 20.75 86.5938 20.125C87.2604 19.4792 87.875 18.8333 88.4375 18.1875C89 17.5208 89.4167 16.9896 89.6875 16.5938C89.8542 16.3854 90.0208 16.25 90.1875 16.1875C90.375 16.125 90.5208 16.1354 90.625 16.2188C90.75 16.3021 90.8125 16.4375 90.8125 16.625C90.8333 16.8125 90.7708 17.0312 90.625 17.2812C90.2917 17.8646 89.8021 18.5625 89.1562 19.375C88.5104 20.1667 87.8229 20.9375 87.0938 21.6875C86.3646 22.4167 85.6458 23.0417 84.9375 23.5625C84.25 24.0833 83.6875 24.3542 83.25 24.375C82.8958 24.3958 82.5417 24.3333 82.1875 24.1875C81.8542 24.0625 81.5417 23.8854 81.25 23.6562C80.9792 23.4062 80.75 23.125 80.5625 22.8125C80.375 22.4792 80.2708 22.1354 80.25 21.7812C80.1875 21.2604 80.1875 20.5521 80.25 19.6562C80.3125 18.7396 80.4271 17.8125 80.5938 16.875C80.7604 15.9167 80.9688 15.0104 81.2188 14.1562C81.4896 13.3021 81.7917 12.6667 82.125 12.25ZM97.625 24.7812C97.1458 24.7812 96.7292 24.6875 96.375 24.5C96.0417 24.3333 95.7708 24.1042 95.5625 23.8125C95.3542 23.5208 95.2188 23.1875 95.1562 22.8125C95.0938 22.4167 95.1146 22 95.2188 21.5625C95.2812 21.2708 95.3854 20.8854 95.5312 20.4062C95.6771 19.9062 95.8229 19.375 95.9688 18.8125C96.1354 18.2292 96.2812 17.6562 96.4062 17.0938C96.5521 16.5104 96.6458 15.9896 96.6875 15.5312C96.7292 15.0521 96.7083 14.6667 96.625 14.375C96.5417 14.0625 96.3646 13.9062 96.0938 13.9062C95.7604 13.9062 95.4167 14.0208 95.0625 14.25C94.7083 14.4583 94.3438 14.75 93.9688 15.125C93.6146 15.5 93.25 15.9375 92.875 16.4375C92.5208 16.9167 92.1667 17.4167 91.8125 17.9375C91.625 18.6458 91.4688 19.2708 91.3438 19.8125C91.2188 20.3333 91.1042 20.8125 91 21.25C90.9167 21.6667 90.8333 22.0417 90.75 22.375C90.6667 22.6875 90.5938 22.9896 90.5312 23.2812C90.4688 23.4896 90.2812 23.6979 89.9688 23.9062C89.6562 24.0938 89.3229 24.25 88.9688 24.375C88.6146 24.5 88.3125 24.5625 88.0625 24.5625C87.7917 24.5625 87.6771 24.4688 87.7188 24.2812C87.7396 24.1562 87.8125 23.875 87.9375 23.4375C88.0417 23 88.1771 22.4896 88.3438 21.9062C88.4896 21.3021 88.6458 20.6667 88.8125 20C88.9792 19.3333 89.1354 18.6979 89.2812 18.0938C89.3854 17.6146 89.5 17.0833 89.625 16.5C89.7292 16 89.8542 15.4167 90 14.75C90.1667 14.0833 90.3542 13.3542 90.5625 12.5625C90.7083 12.4375 90.8542 12.3438 91 12.2812C91.1667 12.1979 91.3333 12.1354 91.5 12.0938C91.6667 12.0312 91.8438 11.9896 92.0312 11.9688C92.1979 11.9688 92.3646 11.9792 92.5312 12C92.6771 12.0208 92.8229 12.0625 92.9688 12.125C93.1354 12.1667 93.2812 12.2396 93.4062 12.3438C93.3438 12.4896 93.2708 12.6979 93.1875 12.9688C93.1042 13.2188 93.0208 13.4896 92.9375 13.7812C92.8542 14.1146 92.75 14.4583 92.625 14.8125C92.8958 14.4375 93.1979 14.0625 93.5312 13.6875C93.8854 13.2917 94.2604 12.9375 94.6562 12.625C95.0729 12.3125 95.5104 12.0625 95.9688 11.875C96.4271 11.6667 96.8958 11.5625 97.375 11.5625C97.7708 11.5625 98.125 11.6771 98.4375 11.9062C98.75 12.1354 98.9896 12.4583 99.1562 12.875C99.3438 13.2708 99.4479 13.75 99.4688 14.3125C99.5104 14.875 99.4375 15.4896 99.25 16.1562L98.9062 17.5312C98.8021 17.9688 98.6667 18.4896 98.5 19.0938C98.3542 19.6771 98.1667 20.3229 97.9375 21.0312C97.8125 21.4896 97.7604 21.8854 97.7812 22.2188C97.8229 22.5521 98.0312 22.7188 98.4062 22.7188C98.7812 22.7188 99.25 22.4896 99.8125 22.0312C100.396 21.5729 100.979 21.0208 101.562 20.375C102.146 19.7292 102.698 19.0729 103.219 18.4062C103.74 17.7188 104.135 17.1667 104.406 16.75C104.594 16.4792 104.771 16.3021 104.938 16.2188C105.104 16.1354 105.229 16.125 105.312 16.1875C105.417 16.25 105.469 16.3958 105.469 16.625C105.469 16.8333 105.385 17.1042 105.219 17.4375C105.073 17.7292 104.844 18.1146 104.531 18.5938C104.24 19.0729 103.885 19.5833 103.469 20.125C103.052 20.6667 102.604 21.2188 102.125 21.7812C101.646 22.3229 101.146 22.8229 100.625 23.2812C100.104 23.7188 99.5833 24.0729 99.0625 24.3438C98.5625 24.6354 98.0833 24.7812 97.625 24.7812ZM119.156 17.7812C118.865 18.1979 118.49 18.7188 118.031 19.3438C117.573 19.9479 117.094 20.5625 116.594 21.1875C116.115 21.7917 115.635 22.3542 115.156 22.875C114.698 23.375 114.312 23.7292 114 23.9375C113.792 24.0625 113.552 24.1667 113.281 24.25C113.01 24.3333 112.729 24.3854 112.438 24.4062C112.167 24.4271 111.906 24.4062 111.656 24.3438C111.406 24.3021 111.188 24.2188 111 24.0938C110.812 23.9479 110.656 23.7396 110.531 23.4688C110.427 23.2396 110.323 22.9375 110.219 22.5625C110.135 22.1875 110.104 21.7188 110.125 21.1562C109.625 21.9896 109.073 22.6354 108.469 23.0938C107.865 23.5312 107.292 23.8542 106.75 24.0625C106.125 24.2917 105.5 24.4271 104.875 24.4688C104.583 24.4688 104.271 24.3646 103.938 24.1562C103.604 23.9688 103.323 23.6667 103.094 23.25C102.865 22.8125 102.719 22.2604 102.656 21.5938C102.594 20.9062 102.677 20.0938 102.906 19.1562C103.198 17.8854 103.656 16.7292 104.281 15.6875C104.927 14.6458 105.625 13.7604 106.375 13.0312C107.125 12.2812 107.865 11.7188 108.594 11.3438C109.323 10.9688 109.927 10.8021 110.406 10.8438C110.969 10.9479 111.427 11.1146 111.781 11.3438C112.073 11.5521 112.26 11.8646 112.344 12.2812C112.448 12.6771 112.281 13.2083 111.844 13.875C112.135 13.8125 112.375 13.7708 112.562 13.75C112.771 13.7292 112.927 13.7188 113.031 13.7188C113.156 13.7188 113.24 13.7292 113.281 13.75C113.302 13.7917 113.312 13.8854 113.312 14.0312C113.312 14.1562 113.281 14.3958 113.219 14.75C113.156 15.1042 113.062 15.5833 112.938 16.1875C112.812 16.7917 112.646 17.5729 112.438 18.5312C112.396 18.7188 112.354 18.8958 112.312 19.0625C112.292 19.2083 112.26 19.3646 112.219 19.5312C112.198 19.6771 112.167 19.8542 112.125 20.0625C112.083 20.2708 112.031 20.5312 111.969 20.8438C111.948 21.0312 111.938 21.2396 111.938 21.4688C111.958 21.6771 112 21.875 112.062 22.0625C112.125 22.25 112.219 22.4062 112.344 22.5312C112.49 22.6354 112.688 22.6875 112.938 22.6875C113.146 22.6875 113.417 22.5625 113.75 22.3125C114.083 22.0417 114.438 21.7083 114.812 21.3125C115.188 20.8958 115.573 20.4479 115.969 19.9688C116.385 19.4688 116.771 18.9896 117.125 18.5312C117.479 18.0729 117.792 17.6667 118.062 17.3125C118.354 16.9583 118.562 16.6979 118.688 16.5312C118.854 16.3438 119.021 16.2396 119.188 16.2188C119.354 16.1771 119.479 16.2188 119.562 16.3438C119.646 16.4688 119.656 16.6562 119.594 16.9062C119.552 17.1562 119.406 17.4479 119.156 17.7812ZM110 19.1562C110.104 18.7396 110.229 18.25 110.375 17.6875C110.521 17.125 110.646 16.5833 110.75 16.0625C110.854 15.5417 110.927 15.1146 110.969 14.7812C111.031 14.4271 111.021 14.2604 110.938 14.2812C110.833 14.3021 110.719 14.3333 110.594 14.375C110.49 14.4167 110.354 14.4479 110.188 14.4688C110.021 14.4896 109.854 14.5208 109.688 14.5625C109.854 14.2292 109.948 13.9583 109.969 13.75C110.01 13.5208 110.021 13.3438 110 13.2188C109.979 13.0729 109.938 12.9583 109.875 12.875C109.646 12.6875 109.24 12.8438 108.656 13.3438C108.094 13.8229 107.438 14.7188 106.688 16.0312C106.375 16.5729 106.125 17.1562 105.938 17.7812C105.75 18.3854 105.615 18.9583 105.531 19.5C105.469 20.0417 105.458 20.5208 105.5 20.9375C105.542 21.3333 105.625 21.5938 105.75 21.7188C105.979 21.9479 106.24 22.0625 106.531 22.0625C106.823 22.0417 107.115 21.9583 107.406 21.8125C107.719 21.6458 108.021 21.4375 108.312 21.1875C108.625 20.9375 108.896 20.6771 109.125 20.4062C109.375 20.1354 109.573 19.8854 109.719 19.6562C109.885 19.4271 109.979 19.2604 110 19.1562ZM115.875 23.8438C115.729 24.0729 115.573 24.2188 115.406 24.2812C115.219 24.3646 115.062 24.375 114.938 24.3125C114.792 24.2708 114.698 24.1667 114.656 24C114.615 23.8333 114.656 23.625 114.781 23.375C114.844 23.25 114.99 22.9688 115.219 22.5312C115.427 22.0938 115.688 21.5729 116 20.9688C116.292 20.3438 116.615 19.6771 116.969 18.9688C117.323 18.2396 117.656 17.5521 117.969 16.9062C118.302 16.2604 118.604 15.6875 118.875 15.1875C119.146 14.6667 119.344 14.2917 119.469 14.0625C119.24 13.8542 119.083 13.7083 119 13.625C118.917 13.5208 118.854 13.3125 118.812 13C118.771 12.7292 118.833 12.375 119 11.9375C119.167 11.5 119.385 11.0833 119.656 10.6875C119.927 10.2708 120.229 9.91667 120.562 9.625C120.896 9.33333 121.219 9.1875 121.531 9.1875C122.115 9.1875 122.521 9.375 122.75 9.75C123 10.125 123.146 10.5104 123.188 10.9062C123.229 11.1771 123.208 11.5208 123.125 11.9375C123.042 12.3542 122.885 12.7292 122.656 13.0625C122.719 13.1042 122.802 13.1562 122.906 13.2188C123.01 13.2604 123.177 13.2812 123.406 13.2812C123.74 13.2812 123.969 13.2604 124.094 13.2188C124.24 13.1771 124.458 13.1562 124.75 13.1562C125.104 13.1562 125.396 13.25 125.625 13.4375C125.854 13.6042 126.042 13.8229 126.188 14.0938C126.333 14.3438 126.438 14.625 126.5 14.9375C126.583 15.2292 126.635 15.5 126.656 15.75C126.719 16.2708 126.583 16.8125 126.25 17.375C125.917 17.9375 125.51 18.5521 125.031 19.2188C124.74 19.6354 124.448 20.1042 124.156 20.625C123.865 21.1458 123.74 21.6146 123.781 22.0312C123.823 22.3021 123.896 22.5208 124 22.6875C124.104 22.8542 124.396 22.9375 124.875 22.9375C125.229 22.9375 125.615 22.8125 126.031 22.5625C126.469 22.2917 126.906 21.9583 127.344 21.5625C127.802 21.1458 128.25 20.6979 128.688 20.2188C129.125 19.7188 129.531 19.2396 129.906 18.7812C130.281 18.3021 130.594 17.875 130.844 17.5C131.115 17.125 131.312 16.8542 131.438 16.6875C131.542 16.5208 131.677 16.4062 131.844 16.3438C132.01 16.2812 132.156 16.2812 132.281 16.3438C132.406 16.4062 132.479 16.5312 132.5 16.7188C132.542 16.9062 132.469 17.1562 132.281 17.4688C132.156 17.6771 131.938 18.0104 131.625 18.4688C131.333 18.9271 130.969 19.4375 130.531 20C130.115 20.5625 129.646 21.1458 129.125 21.75C128.604 22.3333 128.052 22.875 127.469 23.375C126.906 23.8542 126.333 24.25 125.75 24.5625C125.188 24.875 124.646 25.0312 124.125 25.0312C123.583 25.0312 123.135 24.9271 122.781 24.7188C122.427 24.5104 122.135 24.2604 121.906 23.9688C121.698 23.6562 121.542 23.3229 121.438 22.9688C121.354 22.5938 121.323 22.25 121.344 21.9375C121.365 21.6875 121.427 21.4271 121.531 21.1562C121.656 20.8646 121.792 20.5729 121.938 20.2812C122.104 19.9688 122.271 19.6667 122.438 19.375C122.625 19.0625 122.792 18.7604 122.938 18.4688C123.292 17.8646 123.573 17.3542 123.781 16.9375C124.01 16.5 124.125 16.1354 124.125 15.8438C124.125 15.6562 124.083 15.4896 124 15.3438C123.917 15.1979 123.781 15.125 123.594 15.125C123.469 15.125 123.375 15.1354 123.312 15.1562C123.271 15.1562 123.219 15.1562 123.156 15.1562C123.115 15.1562 123.042 15.1667 122.938 15.1875C122.854 15.1875 122.719 15.1875 122.531 15.1875C122.26 15.1875 122.031 15.1458 121.844 15.0625C121.656 14.9792 121.479 14.9167 121.312 14.875C121.229 15.0208 121.042 15.3333 120.75 15.8125C120.458 16.2917 120.115 16.8542 119.719 17.5C119.344 18.1458 118.938 18.8229 118.5 19.5312C118.083 20.2396 117.688 20.9062 117.312 21.5312C116.938 22.1354 116.625 22.6562 116.375 23.0938C116.104 23.5104 115.938 23.7604 115.875 23.8438ZM138.281 12.5C138.552 12.2917 138.812 12.1354 139.062 12.0312C139.333 11.9062 139.573 11.8229 139.781 11.7812C140.01 11.7188 140.24 11.6979 140.469 11.7188C141.031 11.7604 141.375 11.9375 141.5 12.25C141.646 12.5625 141.667 13.0625 141.562 13.75C141.5 14.1042 141.375 14.5521 141.188 15.0938C141 15.6354 140.781 16.3021 140.531 17.0938C140.281 17.8646 140.01 18.75 139.719 19.75C139.448 20.75 139.188 21.875 138.938 23.125C138.688 24.1458 138.417 25.3229 138.125 26.6562C137.875 27.8229 137.573 29.2292 137.219 30.875C136.885 32.5208 136.521 34.4062 136.125 36.5312C136.021 37.0521 135.792 37.3542 135.438 37.4375C135.104 37.5208 134.75 37.4792 134.375 37.3125C134.229 37.2292 134.094 37.1354 133.969 37.0312C133.865 36.9271 133.75 36.8021 133.625 36.6562C133.5 36.5312 133.396 36.3542 133.312 36.125C133.792 34.375 134.208 32.7812 134.562 31.3438C134.938 29.9062 135.271 28.6562 135.562 27.5938C135.875 26.3646 136.167 25.2604 136.438 24.2812C136.542 23.8438 136.635 23.4167 136.719 23C136.823 22.5625 136.927 22.1354 137.031 21.7188C136.76 22.1562 136.469 22.5729 136.156 22.9688C135.844 23.3646 135.5 23.7083 135.125 24C134.75 24.2917 134.344 24.5104 133.906 24.6562C133.49 24.8229 133.052 24.875 132.594 24.8125C131.469 24.6667 130.667 24.25 130.188 23.5625C129.729 22.875 129.531 21.9792 129.594 20.875C129.615 20.4375 129.677 19.9583 129.781 19.4375C129.885 18.9167 130 18.4167 130.125 17.9375C130.25 17.4583 130.365 17.0312 130.469 16.6562C130.594 16.2604 130.688 15.9792 130.75 15.8125C131 15.0208 131.177 14.3438 131.281 13.7812C131.406 13.2188 131.323 12.75 131.031 12.375C131.323 12.1875 131.594 12.0625 131.844 12C132.115 11.9167 132.354 11.8542 132.562 11.8125C132.792 11.7917 133.021 11.7917 133.25 11.8125C133.812 11.8958 134.135 12.1042 134.219 12.4375C134.323 12.7708 134.292 13.2708 134.125 13.9375C134.042 14.2917 133.906 14.75 133.719 15.3125C133.531 15.8542 133.333 16.4167 133.125 17C132.917 17.5833 132.729 18.125 132.562 18.625C132.396 19.1042 132.302 19.4479 132.281 19.6562C132.094 20.5938 132.083 21.3229 132.25 21.8438C132.417 22.3438 132.781 22.5938 133.344 22.5938C133.615 22.5938 133.917 22.4792 134.25 22.25C134.583 22 134.917 21.6771 135.25 21.2812C135.604 20.8854 135.948 20.4375 136.281 19.9375C136.615 19.4167 136.917 18.8958 137.188 18.375C137.479 17.8542 137.729 17.3438 137.938 16.8438C138.167 16.3438 138.333 15.8958 138.438 15.5C138.583 14.7292 138.677 14.125 138.719 13.6875C138.76 13.25 138.615 12.8542 138.281 12.5ZM168.062 17.7812C167.583 18.5729 167.031 19.3958 166.406 20.25C165.802 21.0833 165.156 21.8542 164.469 22.5625C163.781 23.25 163.073 23.8229 162.344 24.2812C161.615 24.7396 160.885 24.9688 160.156 24.9688C159.427 24.9688 158.896 24.7188 158.562 24.2188C158.25 23.7396 158.104 23.1979 158.125 22.5938C158.125 22.3229 158.146 22.0833 158.188 21.875C158.25 21.6667 158.312 21.4792 158.375 21.3125C158.438 21.1458 158.5 20.9792 158.562 20.8125C158.646 20.625 158.719 20.4167 158.781 20.1875C158.865 19.9167 158.865 19.6771 158.781 19.4688C158.719 19.2396 158.635 19.0417 158.531 18.875C158.344 19.0833 158.125 19.2708 157.875 19.4375C157.646 19.5833 157.354 19.6562 157 19.6562C156.75 19.6562 156.521 19.5417 156.312 19.3125C156.104 19.0625 156 18.7604 156 18.4062C156 18.1146 156.062 17.875 156.188 17.6875C156.333 17.5 156.49 17.3542 156.656 17.25C156.844 17.1458 157.031 17.0729 157.219 17.0312C157.406 16.9896 157.562 16.9688 157.688 16.9688C157.75 16.9688 157.875 16.9792 158.062 17C158.271 17.0208 158.49 17.0521 158.719 17.0938C159.469 16.4896 160 15.9479 160.312 15.4688C160.646 14.9688 160.677 14.5208 160.406 14.125C160.24 13.8542 160.031 13.7188 159.781 13.7188C159.531 13.6979 159.271 13.7604 159 13.9062C158.729 14.0312 158.458 14.1979 158.188 14.4062C157.938 14.6146 157.708 14.8125 157.5 15C157.083 15.4167 156.615 15.9167 156.094 16.5C155.594 17.0625 155.177 17.5312 154.844 17.9062C154.698 18.5312 154.552 19.1875 154.406 19.875C154.281 20.4792 154.135 21.1667 153.969 21.9375C153.823 22.6875 153.667 23.4688 153.5 24.2812C153.375 24.3438 153.24 24.3854 153.094 24.4062C152.969 24.4479 152.854 24.4792 152.75 24.5C152.625 24.5208 152.5 24.5312 152.375 24.5312C152.208 24.5312 152.052 24.5208 151.906 24.5C151.76 24.5 151.646 24.4479 151.562 24.3438C151.458 24.2604 151.406 24.1146 151.406 23.9062C151.385 23.6979 151.438 23.4062 151.562 23.0312C151.729 22.4896 151.938 21.7708 152.188 20.875C152.438 19.9583 152.698 18.9583 152.969 17.875C153.24 16.7917 153.51 15.6667 153.781 14.5C154.073 13.3125 154.344 12.1875 154.594 11.125C154.844 10.0417 155.052 9.07292 155.219 8.21875C155.406 7.34375 155.542 6.65625 155.625 6.15625C155.688 5.61458 155.75 5.09375 155.812 4.59375C155.854 4.17708 155.875 3.77083 155.875 3.375C155.896 2.95833 155.875 2.64583 155.812 2.4375C155.917 2.33333 156.062 2.23958 156.25 2.15625C156.438 2.07292 156.646 2.01042 156.875 1.96875C157.104 1.90625 157.375 1.85417 157.688 1.8125C158.042 1.77083 158.333 1.76042 158.562 1.78125C158.812 1.80208 158.99 1.90625 159.094 2.09375C159.219 2.30208 159.24 2.65625 159.156 3.15625C159.094 3.63542 158.948 4.3125 158.719 5.1875C158.427 6.3125 158.125 7.34375 157.812 8.28125C157.521 9.19792 157.229 10.0625 156.938 10.875C156.667 11.6875 156.396 12.4792 156.125 13.25C155.875 14 155.646 14.7708 155.438 15.5625C155.854 14.9583 156.375 14.3229 157 13.6562C157.625 12.9688 158.333 12.4062 159.125 11.9688C159.958 11.5312 160.646 11.3125 161.188 11.3125C161.854 11.3125 162.333 11.5417 162.625 12C162.917 12.4375 163.052 12.9583 163.031 13.5625C163.01 14.0417 162.885 14.4896 162.656 14.9062C162.448 15.3021 162.188 15.6771 161.875 16.0312C161.562 16.3646 161.229 16.6562 160.875 16.9062C160.521 17.1562 160.219 17.3646 159.969 17.5312C160.26 17.6979 160.51 17.9271 160.719 18.2188C160.948 18.4896 161.052 18.8333 161.031 19.25C161.01 19.8125 160.896 20.3125 160.688 20.75C160.5 21.1667 160.406 21.5521 160.406 21.9062C160.427 22.1771 160.479 22.375 160.562 22.5C160.667 22.625 160.875 22.6875 161.188 22.6875C161.75 22.6875 162.333 22.4479 162.938 21.9688C163.562 21.4896 164.146 20.9375 164.688 20.3125C165.229 19.6875 165.729 19.0729 166.188 18.4688C166.646 17.8438 167 17.3854 167.25 17.0938C167.604 16.7188 167.896 16.625 168.125 16.8125C168.375 16.9792 168.354 17.3021 168.062 17.7812ZM173 5.59375C172.938 5.82292 172.812 6.05208 172.625 6.28125C172.458 6.48958 172.26 6.66667 172.031 6.8125C171.823 6.9375 171.604 7.02083 171.375 7.0625C171.146 7.10417 170.958 7.0625 170.812 6.9375C170.375 6.60417 170.146 6.25 170.125 5.875C170.104 5.47917 170.198 5.11458 170.406 4.78125C170.615 4.42708 170.875 4.13542 171.188 3.90625C171.5 3.65625 171.771 3.51042 172 3.46875C172.229 3.42708 172.417 3.47917 172.562 3.625C172.729 3.75 172.854 3.92708 172.938 4.15625C173.021 4.36458 173.062 4.60417 173.062 4.875C173.083 5.14583 173.062 5.38542 173 5.59375ZM168.688 12.25C168.792 12.125 168.99 12.0208 169.281 11.9375C169.573 11.8542 169.875 11.7917 170.188 11.75C170.5 11.6875 170.781 11.6562 171.031 11.6562C171.302 11.6354 171.458 11.6354 171.5 11.6562C171.521 11.6771 171.469 11.8958 171.344 12.3125C171.219 12.7292 171.062 13.2188 170.875 13.7812C170.688 14.3438 170.49 14.9271 170.281 15.5312C170.073 16.1146 169.917 16.5938 169.812 16.9688C169.708 17.3438 169.583 17.7708 169.438 18.25C169.292 18.7083 169.156 19.1667 169.031 19.625C168.927 20.0625 168.854 20.4792 168.812 20.875C168.771 21.2708 168.802 21.5729 168.906 21.7812C169.01 22.0312 169.125 22.2083 169.25 22.3125C169.375 22.3958 169.51 22.4375 169.656 22.4375C170.073 22.4375 170.594 22.2083 171.219 21.75C171.865 21.2917 172.51 20.75 173.156 20.125C173.823 19.4792 174.438 18.8333 175 18.1875C175.562 17.5208 175.979 16.9896 176.25 16.5938C176.417 16.3854 176.583 16.25 176.75 16.1875C176.938 16.125 177.083 16.1354 177.188 16.2188C177.312 16.3021 177.375 16.4375 177.375 16.625C177.396 16.8125 177.333 17.0312 177.188 17.2812C176.854 17.8646 176.365 18.5625 175.719 19.375C175.073 20.1667 174.385 20.9375 173.656 21.6875C172.927 22.4167 172.208 23.0417 171.5 23.5625C170.812 24.0833 170.25 24.3542 169.812 24.375C169.458 24.3958 169.104 24.3333 168.75 24.1875C168.417 24.0625 168.104 23.8854 167.812 23.6562C167.542 23.4062 167.312 23.125 167.125 22.8125C166.938 22.4792 166.833 22.1354 166.812 21.7812C166.75 21.2604 166.75 20.5521 166.812 19.6562C166.875 18.7396 166.99 17.8125 167.156 16.875C167.323 15.9167 167.531 15.0104 167.781 14.1562C168.052 13.3021 168.354 12.6667 168.688 12.25ZM186.438 16.0938C186.521 15.9688 186.625 15.8958 186.75 15.875C186.896 15.8333 187.01 15.8438 187.094 15.9062C187.177 15.9688 187.219 16.0729 187.219 16.2188C187.24 16.3646 187.188 16.5625 187.062 16.8125C186.646 17.6042 186.094 18.4583 185.406 19.375C184.74 20.2917 184.031 21.1562 183.281 21.9688C182.531 22.7604 181.802 23.4167 181.094 23.9375C180.385 24.4583 179.792 24.7188 179.312 24.7188C178.625 24.7188 178.052 24.5833 177.594 24.3125C177.135 24.0417 176.771 23.7083 176.5 23.3125C176.25 22.9167 176.073 22.4896 175.969 22.0312C175.865 21.5521 175.833 21.1146 175.875 20.7188C175.896 20.3854 175.969 19.7917 176.094 18.9375C176.219 18.0625 176.385 17.0625 176.594 15.9375C176.802 14.7917 177.031 13.5729 177.281 12.2812C177.552 10.9688 177.833 9.70833 178.125 8.5C177.771 8.54167 177.417 8.58333 177.062 8.625C176.708 8.66667 176.385 8.6875 176.094 8.6875C175.427 8.6875 174.802 8.61458 174.219 8.46875C173.615 8.30208 173.167 8.14583 172.875 8C172.708 7.91667 172.635 7.80208 172.656 7.65625C172.677 7.48958 172.74 7.33333 172.844 7.1875C172.948 7.02083 173.083 6.88542 173.25 6.78125C173.396 6.65625 173.531 6.59375 173.656 6.59375C174.052 6.63542 174.479 6.67708 174.938 6.71875C175.396 6.73958 175.896 6.73958 176.438 6.71875C176.833 6.69792 177.208 6.66667 177.562 6.625C177.938 6.58333 178.302 6.53125 178.656 6.46875C178.927 5.46875 179.188 4.60417 179.438 3.875C179.708 3.125 179.948 2.60417 180.156 2.3125C180.219 2.20833 180.354 2.125 180.562 2.0625C180.792 1.97917 181.031 1.92708 181.281 1.90625C181.531 1.86458 181.771 1.86458 182 1.90625C182.229 1.92708 182.396 2 182.5 2.125C182.604 2.29167 182.646 2.71875 182.625 3.40625C182.604 4.09375 182.49 4.96875 182.281 6.03125C183.156 6.03125 183.927 6.08333 184.594 6.1875C185.281 6.27083 185.865 6.375 186.344 6.5C186.823 6.60417 187.208 6.71875 187.5 6.84375C187.792 6.94792 188.01 7.02083 188.156 7.0625C188.302 7.10417 188.375 7.20833 188.375 7.375C188.396 7.54167 188.365 7.71875 188.281 7.90625C188.219 8.07292 188.104 8.21875 187.938 8.34375C187.771 8.46875 187.583 8.51042 187.375 8.46875C187.167 8.44792 186.927 8.40625 186.656 8.34375C186.406 8.28125 186.094 8.22917 185.719 8.1875C185.365 8.14583 184.938 8.10417 184.438 8.0625C183.938 8.02083 183.354 8 182.688 8C182.562 8 182.417 8.01042 182.25 8.03125C182.104 8.03125 181.948 8.03125 181.781 8.03125C181.698 8.36458 181.615 8.69792 181.531 9.03125C181.469 9.34375 181.375 9.67708 181.25 10.0312C180.979 10.8646 180.667 11.7708 180.312 12.75C180 13.6042 179.625 14.5833 179.188 15.6875C178.75 16.7917 178.26 17.9688 177.719 19.2188C177.594 20.1146 177.604 20.8021 177.75 21.2812C177.917 21.7396 178.115 22.0729 178.344 22.2812C178.615 22.5104 178.948 22.6354 179.344 22.6562C179.656 22.6979 180.031 22.5938 180.469 22.3438C180.927 22.0729 181.396 21.7188 181.875 21.2812C182.354 20.8438 182.833 20.3646 183.312 19.8438C183.812 19.3229 184.271 18.8125 184.688 18.3125C185.104 17.8125 185.469 17.3646 185.781 16.9688C186.094 16.5521 186.312 16.2604 186.438 16.0938ZM189.875 22.9375C190.521 22.9375 191.229 22.6875 192 22.1875C192.792 21.6667 193.552 21.0625 194.281 20.375C195.031 19.6875 195.708 18.9896 196.312 18.2812C196.938 17.5521 197.406 16.9688 197.719 16.5312C197.906 16.2604 198.083 16.1042 198.25 16.0625C198.417 16 198.542 16.0208 198.625 16.125C198.708 16.2292 198.74 16.3958 198.719 16.625C198.698 16.8333 198.604 17.0729 198.438 17.3438C198.292 17.5938 198.042 17.9583 197.688 18.4375C197.354 18.8958 196.948 19.4062 196.469 19.9688C196.01 20.5104 195.479 21.0729 194.875 21.6562C194.292 22.2188 193.677 22.7396 193.031 23.2188C192.385 23.6771 191.719 24.0521 191.031 24.3438C190.344 24.6562 189.667 24.8125 189 24.8125C188.083 24.8125 187.312 24.6354 186.688 24.2812C186.083 23.9479 185.594 23.5104 185.219 22.9688C184.865 22.4271 184.615 21.8333 184.469 21.1875C184.323 20.5208 184.25 19.8646 184.25 19.2188C184.25 18.5729 184.396 17.7708 184.688 16.8125C184.979 15.8542 185.406 14.9375 185.969 14.0625C186.552 13.1667 187.281 12.4062 188.156 11.7812C189.031 11.1354 190.062 10.8125 191.25 10.8125C191.917 10.8125 192.479 11.0417 192.938 11.5C193.417 11.9583 193.646 12.5833 193.625 13.375C193.625 13.75 193.562 14.125 193.438 14.5C193.312 14.8542 193.146 15.1771 192.938 15.4688C192.729 15.7396 192.479 15.9583 192.188 16.125C191.917 16.2917 191.615 16.375 191.281 16.375C191.01 16.375 190.802 16.2812 190.656 16.0938C190.531 15.8854 190.448 15.6562 190.406 15.4062C190.385 15.1354 190.385 14.875 190.406 14.625C190.448 14.375 190.49 14.2083 190.531 14.125C190.635 13.9792 190.75 13.875 190.875 13.8125C191 13.75 191.146 13.6771 191.312 13.5938C191.438 13.5312 191.531 13.4375 191.594 13.3125C191.677 13.1875 191.719 13.0521 191.719 12.9062C191.719 12.7604 191.677 12.6354 191.594 12.5312C191.51 12.4271 191.375 12.375 191.188 12.375C191 12.375 190.656 12.5312 190.156 12.8438C189.677 13.1354 189.177 13.5833 188.656 14.1875C188.156 14.7708 187.708 15.5104 187.312 16.4062C186.917 17.3021 186.708 18.3438 186.688 19.5312C186.667 20.2188 186.76 20.7812 186.969 21.2188C187.177 21.6562 187.438 22 187.75 22.25C188.062 22.5 188.406 22.6771 188.781 22.7812C189.156 22.8854 189.521 22.9375 189.875 22.9375ZM212.312 17.125C212.458 16.9583 212.604 16.875 212.75 16.875C212.917 16.8542 213.042 16.8958 213.125 17C213.229 17.0833 213.271 17.2188 213.25 17.4062C213.25 17.5938 213.167 17.8021 213 18.0312C212.604 18.5729 212.146 19.1354 211.625 19.7188C211.104 20.2812 210.542 20.8333 209.938 21.375C209.354 21.9167 208.76 22.4271 208.156 22.9062C207.552 23.3854 206.969 23.7812 206.406 24.0938C205.781 24.4479 205.25 24.625 204.812 24.625C204.396 24.625 203.979 24.3542 203.562 23.8125C203.188 23.3333 203 22.8229 203 22.2812C203.021 21.7188 203.146 21.0208 203.375 20.1875C203.521 19.6667 203.719 19.0521 203.969 18.3438C204.24 17.6146 204.448 16.9167 204.594 16.25C204.76 15.5833 204.812 15.0208 204.75 14.5625C204.688 14.0833 204.417 13.8438 203.938 13.8438C203.604 13.8438 203.24 13.9583 202.844 14.1875C202.469 14.4167 202.083 14.7188 201.688 15.0938C201.312 15.4479 200.948 15.8542 200.594 16.3125C200.24 16.7708 199.927 17.2188 199.656 17.6562C199.49 18.4688 199.323 19.2708 199.156 20.0625C199.01 20.7292 198.854 21.4583 198.688 22.25C198.542 23.0208 198.396 23.7083 198.25 24.3125C198.125 24.4167 197.99 24.4896 197.844 24.5312C197.698 24.5729 197.562 24.5938 197.438 24.5938C197.292 24.5938 197.146 24.5833 197 24.5625C196.833 24.5208 196.677 24.4583 196.531 24.375C196.406 24.2917 196.281 24.1771 196.156 24.0312C196.031 23.9062 195.938 23.7292 195.875 23.5C196.812 19.6458 197.552 16.5521 198.094 14.2188C198.635 11.8854 199.052 10.1042 199.344 8.875C199.677 7.41667 199.906 6.40625 200.031 5.84375C200.094 5.44792 200.146 5.0625 200.188 4.6875C200.229 4.35417 200.25 4.01042 200.25 3.65625C200.25 3.30208 200.219 2.97917 200.156 2.6875C200.323 2.58333 200.5 2.5 200.688 2.4375C200.896 2.375 201.094 2.32292 201.281 2.28125C201.51 2.21875 201.74 2.16667 201.969 2.125C202.198 2.08333 202.406 2.0625 202.594 2.0625C202.76 2.0625 202.917 2.08333 203.062 2.125C203.208 2.14583 203.302 2.20833 203.344 2.3125C203.469 2.41667 203.521 2.625 203.5 2.9375C203.5 3.25 203.479 3.57292 203.438 3.90625C203.354 4.30208 203.26 4.72917 203.156 5.1875C202.719 6.875 202.229 8.52083 201.688 10.125C201.146 11.7083 200.646 13.4062 200.188 15.2188C200.458 14.8021 200.781 14.375 201.156 13.9375C201.531 13.5 201.938 13.1042 202.375 12.75C202.833 12.375 203.312 12.0729 203.812 11.8438C204.312 11.5938 204.844 11.4688 205.406 11.4688C205.698 11.4688 205.969 11.5208 206.219 11.625C206.49 11.7083 206.719 11.8646 206.906 12.0938C207.115 12.3021 207.271 12.5938 207.375 12.9688C207.479 13.3229 207.521 13.7708 207.5 14.3125C207.5 14.6458 207.458 14.9896 207.375 15.3438C207.312 15.6979 207.219 16.0938 207.094 16.5312C206.969 16.9479 206.802 17.4167 206.594 17.9375C206.406 18.4583 206.177 19.0625 205.906 19.75C205.719 20.2292 205.573 20.6354 205.469 20.9688C205.365 21.3021 205.385 21.5938 205.531 21.8438C205.719 22.1771 206.083 22.2604 206.625 22.0938C207.188 21.9062 208.021 21.3646 209.125 20.4688C209.375 20.2604 209.656 20 209.969 19.6875C210.281 19.375 210.583 19.0625 210.875 18.75C211.167 18.4167 211.438 18.1042 211.688 17.8125C211.938 17.5208 212.146 17.2917 212.312 17.125ZM225.25 17.5C224.625 18.4167 223.917 19.3125 223.125 20.1875C222.333 21.0417 221.49 21.8125 220.594 22.5C219.719 23.1667 218.812 23.7083 217.875 24.125C216.958 24.5417 216.062 24.75 215.188 24.75C214.729 24.75 214.229 24.6354 213.688 24.4062C213.167 24.1979 212.688 23.8646 212.25 23.4062C211.812 22.9479 211.458 22.3542 211.188 21.625C210.938 20.8958 210.865 20.0104 210.969 18.9688C211.052 18.1146 211.312 17.2188 211.75 16.2812C212.208 15.3229 212.76 14.4479 213.406 13.6562C214.073 12.8646 214.812 12.2083 215.625 11.6875C216.458 11.1667 217.292 10.9062 218.125 10.9062C218.917 10.9062 219.49 11.1042 219.844 11.5C220.198 11.8958 220.354 12.3854 220.312 12.9688C220.25 13.6146 220.062 14.2083 219.75 14.75C219.458 15.2917 219.104 15.7812 218.688 16.2188C218.271 16.6562 217.823 17.0521 217.344 17.4062C216.885 17.7604 216.448 18.0833 216.031 18.375C215.573 18.6875 215.135 18.9896 214.719 19.2812C214.302 19.5521 213.938 19.8021 213.625 20.0312C213.646 20.5521 213.74 20.9896 213.906 21.3438C214.073 21.6979 214.281 21.9896 214.531 22.2188C214.781 22.4271 215.062 22.5833 215.375 22.6875C215.708 22.7708 216.042 22.8125 216.375 22.8125C217.083 22.8125 217.823 22.5938 218.594 22.1562C219.365 21.6979 220.115 21.1562 220.844 20.5312C221.594 19.8854 222.281 19.2188 222.906 18.5312C223.552 17.8438 224.083 17.25 224.5 16.75C224.646 16.5833 224.792 16.4896 224.938 16.4688C225.104 16.4271 225.229 16.4479 225.312 16.5312C225.417 16.5938 225.469 16.7188 225.469 16.9062C225.469 17.0729 225.396 17.2708 225.25 17.5ZM217.25 12.6875C217 12.6875 216.698 12.8125 216.344 13.0625C216.01 13.3125 215.677 13.6771 215.344 14.1562C215.01 14.6146 214.698 15.1875 214.406 15.875C214.115 16.5417 213.896 17.3125 213.75 18.1875C214 18 214.271 17.8125 214.562 17.625C214.854 17.4167 215.146 17.1979 215.438 16.9688C216.333 16.2812 216.958 15.6771 217.312 15.1562C217.667 14.6354 217.865 14.1875 217.906 13.8125C217.948 13.4167 217.906 13.1354 217.781 12.9688C217.656 12.7812 217.479 12.6875 217.25 12.6875ZM232.281 24.7812C231.802 24.7812 231.385 24.6875 231.031 24.5C230.698 24.3333 230.427 24.1042 230.219 23.8125C230.01 23.5208 229.875 23.1875 229.812 22.8125C229.75 22.4167 229.771 22 229.875 21.5625C229.938 21.2708 230.042 20.8854 230.188 20.4062C230.333 19.9062 230.479 19.375 230.625 18.8125C230.792 18.2292 230.938 17.6562 231.062 17.0938C231.208 16.5104 231.302 15.9896 231.344 15.5312C231.385 15.0521 231.365 14.6667 231.281 14.375C231.198 14.0625 231.021 13.9062 230.75 13.9062C230.417 13.9062 230.073 14.0208 229.719 14.25C229.365 14.4583 229 14.75 228.625 15.125C228.271 15.5 227.906 15.9375 227.531 16.4375C227.177 16.9167 226.823 17.4167 226.469 17.9375C226.281 18.6458 226.125 19.2708 226 19.8125C225.875 20.3333 225.76 20.8125 225.656 21.25C225.573 21.6667 225.49 22.0417 225.406 22.375C225.323 22.6875 225.25 22.9896 225.188 23.2812C225.125 23.4896 224.938 23.6979 224.625 23.9062C224.312 24.0938 223.979 24.25 223.625 24.375C223.271 24.5 222.969 24.5625 222.719 24.5625C222.448 24.5625 222.333 24.4688 222.375 24.2812C222.396 24.1562 222.469 23.875 222.594 23.4375C222.698 23 222.833 22.4896 223 21.9062C223.146 21.3021 223.302 20.6667 223.469 20C223.635 19.3333 223.792 18.6979 223.938 18.0938C224.042 17.6146 224.156 17.0833 224.281 16.5C224.385 16 224.51 15.4167 224.656 14.75C224.823 14.0833 225.01 13.3542 225.219 12.5625C225.365 12.4375 225.51 12.3438 225.656 12.2812C225.823 12.1979 225.99 12.1354 226.156 12.0938C226.323 12.0312 226.5 11.9896 226.688 11.9688C226.854 11.9688 227.021 11.9792 227.188 12C227.333 12.0208 227.479 12.0625 227.625 12.125C227.792 12.1667 227.938 12.2396 228.062 12.3438C228 12.4896 227.927 12.6979 227.844 12.9688C227.76 13.2188 227.677 13.4896 227.594 13.7812C227.51 14.1146 227.406 14.4583 227.281 14.8125C227.552 14.4375 227.854 14.0625 228.188 13.6875C228.542 13.2917 228.917 12.9375 229.312 12.625C229.729 12.3125 230.167 12.0625 230.625 11.875C231.083 11.6667 231.552 11.5625 232.031 11.5625C232.427 11.5625 232.781 11.6771 233.094 11.9062C233.406 12.1354 233.646 12.4583 233.812 12.875C234 13.2708 234.104 13.75 234.125 14.3125C234.167 14.875 234.094 15.4896 233.906 16.1562L233.562 17.5312C233.458 17.9688 233.323 18.4896 233.156 19.0938C233.01 19.6771 232.823 20.3229 232.594 21.0312C232.469 21.4896 232.417 21.8854 232.438 22.2188C232.479 22.5521 232.688 22.7188 233.062 22.7188C233.438 22.7188 233.906 22.4896 234.469 22.0312C235.052 21.5729 235.635 21.0208 236.219 20.375C236.802 19.7292 237.354 19.0729 237.875 18.4062C238.396 17.7188 238.792 17.1667 239.062 16.75C239.25 16.4792 239.427 16.3021 239.594 16.2188C239.76 16.1354 239.885 16.125 239.969 16.1875C240.073 16.25 240.125 16.3958 240.125 16.625C240.125 16.8333 240.042 17.1042 239.875 17.4375C239.729 17.7292 239.5 18.1146 239.188 18.5938C238.896 19.0729 238.542 19.5833 238.125 20.125C237.708 20.6667 237.26 21.2188 236.781 21.7812C236.302 22.3229 235.802 22.8229 235.281 23.2812C234.76 23.7188 234.24 24.0729 233.719 24.3438C233.219 24.6354 232.74 24.7812 232.281 24.7812Z" fill="black"/>
<g clip-path="url(#clip0_55:13)">
<path d="M4.68675 2.86822C4.68259 2.86371 4.67837 2.85926 4.67422 2.85481C3.74033 1.83915 2.18064 1.72522 1.1005 2.55784C0.594838 2.93839 0.234731 3.47556 0.0864822 4.07037C-0.0798066 4.73775 0.0303693 5.4493 0.396744 6.07392C0.789359 6.74318 1.1924 7.43329 1.60347 8.13686C5.50138 14.8098 9.91943 22.373 13.1011 25.5547C13.3159 25.7696 13.6058 25.8926 13.9097 25.8976C14.0605 25.9002 17.6432 25.945 21.2022 24.6564C21.2909 24.6242 21.3734 24.5825 21.4488 24.5329L27.9661 31.6115C28.4053 32.0883 29.1466 32.1172 29.6214 31.6798C30.0974 31.2416 30.128 30.5005 29.6898 30.0245L4.68675 2.86822ZM14.42 23.5471C11.4542 20.3554 7.12808 12.9496 3.62652 6.95509C3.21475 6.25023 2.81089 5.55889 2.41763 4.88846C2.37845 4.82157 2.25907 4.61815 2.50936 4.42978C2.68039 4.28973 2.86741 4.34039 2.96992 4.46258L19.7398 22.6767C17.5201 23.3673 15.349 23.5157 14.42 23.5471ZM17.5283 14.4711C15.3969 12.4282 15.444 8.70485 17.5707 6.66779C19.2675 4.97093 22.2551 2.39302 22.3816 2.28413C22.8716 1.86176 23.6114 1.91658 24.0337 2.40666C24.4561 2.89674 24.4013 3.6364 23.9112 4.05883C23.881 4.08496 20.8626 6.68929 19.2273 8.32453C18.6278 8.92409 18.2931 9.72536 18.285 10.5806C18.2351 12.2985 19.7019 13.7622 21.4189 13.7145C22.2742 13.7064 23.0754 13.3718 23.675 12.7722C25.3111 11.1361 27.9145 8.11859 27.9407 8.08831C28.3631 7.59823 29.1028 7.5434 29.5928 7.96577C30.0829 8.38814 30.1377 9.12786 29.7154 9.61794C29.6065 9.74428 27.0286 12.732 25.3317 14.4289C24.2835 15.4779 22.8769 16.0581 21.3867 16.0576C19.9209 16.0576 18.5526 15.4954 17.5283 14.4711ZM20.8482 9.55316L25.1826 5.16018C25.6369 4.69968 26.3786 4.69464 26.8393 5.14905C27.2998 5.60346 27.3048 6.34517 26.8504 6.80573L22.516 11.1987C22.0614 11.6594 21.3197 11.6641 20.8593 11.2098C20.3987 10.7554 20.3938 10.0137 20.8482 9.55316ZM1.1709 32C0.142302 32.0063 -0.396042 30.7343 0.342564 30.0001L6.85477 23.4879C7.99765 22.4326 9.56629 24.0031 8.51145 25.1447L1.99924 31.6569C1.77052 31.8857 1.47074 32 1.1709 32Z" fill="#FFA800"/>
</g>
<defs>
<clipPath id="clip0_55:13">
<rect width="30" height="30" fill="white" transform="translate(0 2)"/>
</clipPath>
</defs>
</svg>
