<svg width="52" height="52" viewBox="0 0 52 52" fill="none" xmlns="http://www.w3.org/2000/svg">
<mask id="mask0_25:113" style="mask-type:alpha" maskUnits="userSpaceOnUse" x="19" y="13" width="15" height="26">
<path d="M22.6693 20.4479C22.6693 16.766 25.654 13.7812 29.3359 13.7812H32.6693C33.2829 13.7812 33.7804 14.2787 33.7804 14.8924V19.3368C33.7804 19.9505 33.2829 20.4479 32.6693 20.4479H29.3359V22.6701H32.6693C33.3921 22.6701 33.9225 23.3495 33.7472 24.0507L32.6361 28.4952C32.5125 28.9898 32.068 29.3368 31.5582 29.3368H29.3359V37.1146C29.3359 37.7282 28.8385 38.2257 28.2248 38.2257H23.7804C23.1667 38.2257 22.6693 37.7282 22.6693 37.1146V29.3368H20.447C19.8334 29.3368 19.3359 28.8393 19.3359 28.2257V23.7812C19.3359 23.1676 19.8334 22.6701 20.447 22.6701H22.6693V20.4479ZM31.5582 16.0035H29.3359C26.8813 16.0035 24.8915 17.9933 24.8915 20.4479V23.7812C24.8915 24.3949 24.394 24.8924 23.7804 24.8924H21.5582V27.1146H23.7804C24.394 27.1146 24.8915 27.612 24.8915 28.2257V36.0035H27.1137V28.2257C27.1137 27.612 27.6112 27.1146 28.2248 27.1146H30.6906L31.2462 24.8924H28.2248C27.6112 24.8924 27.1137 24.3949 27.1137 23.7812V20.4479C27.1137 19.2206 28.1086 18.2257 29.3359 18.2257H31.5582V16.0035Z" fill="white"/>
</mask>
<g mask="url(#mask0_25:113)">
<path d="M22.6693 20.4479C22.6693 16.766 25.654 13.7812 29.3359 13.7812H32.6693C33.2829 13.7812 33.7804 14.2787 33.7804 14.8924V19.3368C33.7804 19.9505 33.2829 20.4479 32.6693 20.4479H29.3359V22.6701H32.6693C33.3921 22.6701 33.9225 23.3495 33.7472 24.0507L32.6361 28.4952C32.5125 28.9898 32.068 29.3368 31.5582 29.3368H29.3359V37.1146C29.3359 37.7282 28.8385 38.2257 28.2248 38.2257H23.7804C23.1667 38.2257 22.6693 37.7282 22.6693 37.1146V29.3368H20.447C19.8334 29.3368 19.3359 28.8393 19.3359 28.2257V23.7812C19.3359 23.1676 19.8334 22.6701 20.447 22.6701H22.6693V20.4479ZM31.5582 16.0035H29.3359C26.8813 16.0035 24.8915 17.9933 24.8915 20.4479V23.7812C24.8915 24.3949 24.394 24.8924 23.7804 24.8924H21.5582V27.1146H23.7804C24.394 27.1146 24.8915 27.612 24.8915 28.2257V36.0035H27.1137V28.2257C27.1137 27.612 27.6112 27.1146 28.2248 27.1146H30.6906L31.2462 24.8924H28.2248C27.6112 24.8924 27.1137 24.3949 27.1137 23.7812V20.4479C27.1137 19.2206 28.1086 18.2257 29.3359 18.2257H31.5582V16.0035Z" fill="black"/>
<path d="M39.3347 12.6602H12.668V39.3268H39.3347V12.6602Z" fill="black"/>
</g>
<path d="M26 51C39.8071 51 51 39.8071 51 26C51 12.1929 39.8071 1 26 1C12.1929 1 1 12.1929 1 26C1 39.8071 12.1929 51 26 51Z" stroke="#D9D9D9"/>
</svg>
