<svg width="52" height="52" viewBox="0 0 52 52" fill="none" xmlns="http://www.w3.org/2000/svg">
<mask id="mask0_25:122" style="mask-type:alpha" maskUnits="userSpaceOnUse" x="13" y="13" width="26" height="26">
<path d="M31.559 13.7812C35.2409 13.7812 38.2257 16.766 38.2257 20.4479V31.559C38.2257 35.2409 35.2409 38.2257 31.559 38.2257H20.4479C16.766 38.2257 13.7812 35.2409 13.7812 31.559V20.4479C13.7812 16.766 16.766 13.7812 20.4479 13.7812H31.559ZM31.559 16.0035H20.4479C17.9933 16.0035 16.0035 17.9933 16.0035 20.4479V31.559C16.0035 34.0136 17.9933 36.0035 20.4479 36.0035H31.559C34.0136 36.0035 36.0035 34.0136 36.0035 31.559V20.4479C36.0035 17.9933 34.0136 16.0035 31.559 16.0035ZM26.8665 20.4599C29.2873 20.8189 31.188 22.7197 31.547 25.1405C31.8986 27.5113 30.6901 29.8403 28.5493 30.9178C26.4084 31.9954 23.8179 31.5785 22.1232 29.8838C20.4284 28.189 20.0116 25.5985 21.0891 23.4577C22.1667 21.3168 24.4957 20.1084 26.8665 20.4599ZM23.0741 24.4568C22.4276 25.7413 22.6777 27.2956 23.6945 28.3124C24.7114 29.3293 26.2657 29.5794 27.5502 28.9328C28.8347 28.2863 29.5598 26.8889 29.3488 25.4665C29.1334 24.014 27.993 22.8735 26.5405 22.6581C25.118 22.4472 23.7206 23.1723 23.0741 24.4568ZM33.7693 19.174C33.6975 18.6898 33.3174 18.3097 32.8332 18.2379C32.3591 18.1676 31.8933 18.4093 31.6778 18.8374C31.4623 19.2656 31.5457 19.7836 31.8846 20.1226C32.2236 20.4615 32.7416 20.5449 33.1698 20.3294C33.5979 20.1139 33.8396 19.6481 33.7693 19.174Z" fill="white"/>
</mask>
<g mask="url(#mask0_25:122)">
<path d="M31.559 13.7812C35.2409 13.7812 38.2257 16.766 38.2257 20.4479V31.559C38.2257 35.2409 35.2409 38.2257 31.559 38.2257H20.4479C16.766 38.2257 13.7812 35.2409 13.7812 31.559V20.4479C13.7812 16.766 16.766 13.7812 20.4479 13.7812H31.559ZM31.559 16.0035H20.4479C17.9933 16.0035 16.0035 17.9933 16.0035 20.4479V31.559C16.0035 34.0136 17.9933 36.0035 20.4479 36.0035H31.559C34.0136 36.0035 36.0035 34.0136 36.0035 31.559V20.4479C36.0035 17.9933 34.0136 16.0035 31.559 16.0035ZM26.8665 20.4599C29.2873 20.8189 31.188 22.7197 31.547 25.1405C31.8986 27.5113 30.6901 29.8403 28.5493 30.9178C26.4084 31.9954 23.8179 31.5785 22.1232 29.8838C20.4284 28.189 20.0116 25.5985 21.0891 23.4577C22.1667 21.3168 24.4957 20.1084 26.8665 20.4599ZM23.0741 24.4568C22.4276 25.7413 22.6777 27.2956 23.6945 28.3124C24.7114 29.3293 26.2657 29.5794 27.5502 28.9328C28.8347 28.2863 29.5598 26.8889 29.3488 25.4665C29.1334 24.014 27.993 22.8735 26.5405 22.6581C25.118 22.4472 23.7206 23.1723 23.0741 24.4568ZM33.7693 19.174C33.6975 18.6898 33.3174 18.3097 32.8332 18.2379C32.3591 18.1676 31.8933 18.4093 31.6778 18.8374C31.4623 19.2656 31.5457 19.7836 31.8846 20.1226C32.2236 20.4615 32.7416 20.5449 33.1698 20.3294C33.5979 20.1139 33.8396 19.6481 33.7693 19.174Z" fill="black"/>
<path d="M39.3307 12.6602H12.6641V39.3268H39.3307V12.6602Z" fill="black"/>
</g>
<path d="M26 51C39.8071 51 51 39.8071 51 26C51 12.1929 39.8071 1 26 1C12.1929 1 1 12.1929 1 26C1 39.8071 12.1929 51 26 51Z" stroke="#D9D9D9"/>
</svg>
