<svg width="52" height="52" viewBox="0 0 52 52" fill="none" xmlns="http://www.w3.org/2000/svg">
<mask id="mask0_25:104" style="mask-type:alpha" maskUnits="userSpaceOnUse" x="12" y="14" width="28" height="24">
<path d="M37.5814 15.1052C38.4204 14.5135 39.5444 15.2786 39.3014 16.2761C38.9208 17.8389 38.1579 19.2794 37.085 20.4698C37.1016 20.6498 37.1102 20.831 37.1108 21.0132C37.1108 34.1903 24.3929 40.9594 13.2378 34.7622C12.2148 34.1938 12.6522 32.6341 13.8216 32.6807C15.6956 32.7552 17.5507 32.3826 19.2376 31.6056C16.7885 30.0961 15.2204 28.0976 14.4511 25.7334C13.6568 23.2923 13.7727 20.7271 14.4354 18.2909C14.6358 17.554 14.8395 16.9987 14.9843 16.673C15.335 15.8839 16.4126 15.779 16.9089 16.4857C18.7662 19.1304 21.7029 20.7814 24.8882 21.0204C24.8711 18.482 26.4315 16.1974 28.8057 15.2912C30.9529 14.4717 33.3547 14.9363 35.0361 16.441C35.9384 16.1093 36.7943 15.6604 37.5814 15.1052ZM35.0534 18.7771C34.6349 18.9031 34.1814 18.7721 33.8946 18.4423C32.8298 17.2181 31.114 16.7887 29.5982 17.3673C28.0823 17.9459 27.0889 19.4093 27.1108 21.0465V22.1576C27.1108 22.76 26.6307 23.2527 26.0284 23.2683C22.4054 23.3623 18.944 21.9361 16.4486 19.3946C16.0097 21.2891 15.9776 23.2428 16.5642 25.0458C17.3165 27.3575 19.0385 29.2343 22.0065 30.5533C22.8029 30.9073 22.9003 31.9985 22.1792 32.488C20.9358 33.332 19.5733 33.9655 18.1463 34.3728C26.6787 36.6175 34.8885 30.9534 34.8885 21.0168C34.8878 20.7761 34.8646 20.536 34.8194 20.2996C34.7498 19.9353 34.8665 19.5603 35.1306 19.2998C35.3781 19.0557 35.6073 18.7956 35.8171 18.5215C35.5654 18.6143 35.3107 18.6996 35.0534 18.7771Z" fill="white"/>
</mask>
<g mask="url(#mask0_25:104)">
<path d="M37.5814 15.1052C38.4204 14.5135 39.5444 15.2786 39.3014 16.2761C38.9208 17.8389 38.1579 19.2794 37.085 20.4698C37.1016 20.6498 37.1102 20.831 37.1108 21.0132C37.1108 34.1903 24.3929 40.9594 13.2378 34.7622C12.2148 34.1938 12.6522 32.6341 13.8216 32.6807C15.6956 32.7552 17.5507 32.3826 19.2376 31.6056C16.7885 30.0961 15.2204 28.0976 14.4511 25.7334C13.6568 23.2923 13.7727 20.7271 14.4354 18.2909C14.6358 17.554 14.8395 16.9987 14.9843 16.673C15.335 15.8839 16.4126 15.779 16.9089 16.4857C18.7662 19.1304 21.7029 20.7814 24.8882 21.0204C24.8711 18.482 26.4315 16.1974 28.8057 15.2912C30.9529 14.4717 33.3547 14.9363 35.0361 16.441C35.9384 16.1093 36.7943 15.6604 37.5814 15.1052ZM35.0534 18.7771C34.6349 18.9031 34.1814 18.7721 33.8946 18.4423C32.8298 17.2181 31.114 16.7887 29.5982 17.3673C28.0823 17.9459 27.0889 19.4093 27.1108 21.0465V22.1576C27.1108 22.76 26.6307 23.2527 26.0284 23.2683C22.4054 23.3623 18.944 21.9361 16.4486 19.3946C16.0097 21.2891 15.9776 23.2428 16.5642 25.0458C17.3165 27.3575 19.0385 29.2343 22.0065 30.5533C22.8029 30.9073 22.9003 31.9985 22.1792 32.488C20.9358 33.332 19.5733 33.9655 18.1463 34.3728C26.6787 36.6175 34.8885 30.9534 34.8885 21.0168C34.8878 20.7761 34.8646 20.536 34.8194 20.2996C34.7498 19.9353 34.8665 19.5603 35.1306 19.2998C35.3781 19.0557 35.6073 18.7956 35.8171 18.5215C35.5654 18.6143 35.3107 18.6996 35.0534 18.7771Z" fill="black"/>
<path d="M39.3307 12.668H12.6641V39.3348H39.3307V12.668Z" fill="black"/>
</g>
<path d="M26 51C39.8071 51 51 39.8071 51 26C51 12.1929 39.8071 1 26 1C12.1929 1 1 12.1929 1 26C1 39.8071 12.1929 51 26 51Z" stroke="#D9D9D9"/>
</svg>
