<svg width="120" height="120" viewBox="0 0 120 120" fill="none" xmlns="http://www.w3.org/2000/svg">
<circle cx="60" cy="60" r="60" fill="#342679" fill-opacity="0.7"/>
<g clip-path="url(#clip0_61:3370)">
<path d="M84.8154 43.0782C84.6678 42.8673 84.4547 42.7291 84.2226 42.6723C83.7503 42.5465 78.3603 41.1929 74.5812 43.7931C74.334 43.9632 74.1009 44.1465 73.8805 44.3397C74.1175 42.5157 74.2407 40.6686 74.2407 38.8073C74.2407 38.2438 73.784 37.787 73.2205 37.787C72.657 37.787 72.2003 38.2438 72.2003 38.8073C72.2003 39.8188 72.1624 40.8218 72.0901 41.8156C70.0091 38.6232 65.8803 37.2179 65.1697 36.9955C64.9464 36.914 64.6937 36.9098 64.4543 37.0018C64.2107 37.0954 64.0235 37.2722 63.913 37.4876C63.6996 37.884 61.4756 42.157 62.4757 46.1896C62.389 46.187 62.3007 46.1947 62.2122 46.2154C61.9668 46.273 61.7631 46.4149 61.6243 46.6034C61.3518 46.9583 58.5843 50.6691 58.7908 54.7097C57.8243 54.0139 57.015 53.5884 56.7442 53.4525C56.5339 53.3352 56.2814 53.2914 56.0279 53.3472C55.7864 53.4003 55.5837 53.535 55.4427 53.7162C55.3203 53.8728 52.9583 56.9396 52.621 60.5629C51.8974 59.8392 51.289 59.3617 51.0685 59.1954C50.8879 59.0453 50.6527 58.9543 50.4017 58.9604C50.1378 58.9643 49.8986 59.0682 49.7197 59.2358C49.3616 59.5586 45.2831 63.3414 45.4031 67.9307C45.4913 71.2647 47.7963 74.0072 49.2512 75.4116C45.1599 77.3766 40.6715 78.6815 35.9134 79.1828C35.3531 79.2419 34.9467 79.7439 35.0057 80.3043C35.0609 80.8284 35.5035 81.2176 36.0191 81.2176C36.0548 81.2176 36.0908 81.2157 36.1272 81.2119C41.1729 80.6803 46.0308 79.2555 50.5019 77.0448C51.4232 78.5409 53.9196 82.0187 57.6531 82.8674C58.2532 83.0037 58.8525 83.0634 59.4426 83.0634C63.1547 83.0633 66.4888 80.6984 67.2056 80.1522C67.3024 80.0905 67.3898 80.0118 67.4628 79.9179C67.701 79.6115 67.7446 79.1964 67.5754 78.847C67.4895 78.67 65.8853 75.4189 62.9885 73.4437C64.2793 74.0997 65.7983 74.606 67.4176 74.6059C67.5583 74.6059 67.7005 74.6019 67.8427 74.5941C72.2085 74.3507 75.4661 70.3021 76.0826 69.4776C76.1582 69.3924 76.2201 69.2937 76.2644 69.1846C76.4109 68.8236 76.339 68.4108 76.0793 68.1205C75.9766 68.0058 74.4266 66.2995 72.1413 65.0727C73.3835 65.0165 74.6793 64.7551 75.88 64.136C79.77 62.1287 81.0861 57.1078 81.312 56.1005C81.3454 55.9945 81.3618 55.882 81.3586 55.7671C81.348 55.3746 81.1131 55.0231 80.7547 54.8631C80.6476 54.8152 79.3964 54.267 77.6625 53.926C78.7148 53.701 79.7669 53.3055 80.7159 52.6522C84.4133 50.107 84.9342 44.6239 84.993 43.7812C85.0207 43.5415 84.9643 43.2912 84.8154 43.0782ZM72.5202 53.9614C72.1094 54.069 71.7021 54.2088 71.3033 54.386C71.3837 54.1806 71.4621 53.9746 71.5392 53.7679C71.7999 53.8282 72.1319 53.8971 72.5202 53.9614ZM65.345 39.2269C66.8283 39.8184 69.8901 41.3204 70.9064 43.9468C71.9248 46.5781 70.75 49.741 70.0912 51.1712C69.3764 50.8694 68.2809 50.3371 67.2355 49.5509C66.7461 49.0155 66.2266 48.5425 65.7225 48.1342C65.2908 47.6177 64.9239 47.0377 64.6734 46.3904C63.6605 43.7706 64.7289 40.6548 65.345 39.2269ZM69.6006 53.1723C69.5527 53.2996 69.5062 53.4275 69.4571 53.5541C69.4186 53.3868 69.375 53.2219 69.3256 53.0599C69.4228 53.1008 69.5147 53.1383 69.6006 53.1723ZM62.759 48.5492C63.1811 48.8027 63.7374 49.1662 64.3219 49.6278C64.7908 50.159 65.3063 50.6299 65.8341 51.0414C66.5981 51.9017 67.2425 52.9309 67.4893 54.1015C68.0714 56.8624 66.4032 59.7953 65.5231 61.101C64.2064 60.2738 61.5297 58.2871 60.9447 55.5115C60.366 52.7637 61.9214 49.8599 62.759 48.5492ZM63.4463 62.15C63.794 62.4057 64.1187 62.6239 64.3992 62.8013C64.0295 63.3076 63.6477 63.8044 63.2552 64.2925C63.3957 63.6023 63.4706 62.8823 63.4463 62.15ZM56.5601 55.6838C57.929 56.5061 60.7098 58.481 61.2905 61.2365C61.8727 63.9973 60.2045 66.9302 59.3244 68.2359C58.0077 67.4086 55.331 65.4219 54.746 62.6464C54.1668 59.8959 55.7227 56.9932 56.5601 55.6838ZM59.5392 71.0318C60.0061 71.4598 60.7566 72.092 61.7101 72.7074C61.1918 72.4619 60.6414 72.2643 60.0597 72.1322C59.5212 72.0099 58.9826 71.9522 58.4505 71.9453C58.8181 71.6472 59.181 71.3427 59.5392 71.0318ZM57.9352 69.7641C57.0185 70.5442 56.0661 71.2845 55.0801 71.9819C55.6293 70.9132 56.0515 69.7007 56.1529 68.4046C56.7918 68.9679 57.4169 69.422 57.9352 69.7641ZM47.443 67.8766C47.3695 65.0677 49.4233 62.4927 50.4833 61.3554C51.6814 62.4114 54.0604 64.8556 54.1346 67.6701C54.2093 70.4905 52.0396 73.0746 50.9384 74.2002C49.7925 73.1491 47.518 70.7126 47.443 67.8766ZM65.3189 78.9884C63.9908 79.8595 60.9678 81.5275 58.1051 80.8776C55.2692 80.2329 53.2186 77.5066 52.3631 76.1693C53.7092 75.2476 56.7669 73.477 59.6079 74.122C62.4551 74.7683 64.4853 77.6131 65.3189 78.9884ZM73.9477 68.8776C72.9304 70.0538 70.5612 72.3987 67.7292 72.5565C64.9219 72.7139 62.2884 70.7346 61.1216 69.7088C62.1418 68.4804 64.5154 66.0306 67.3269 65.874C70.1447 65.7175 72.7904 67.81 73.9477 68.8776ZM79.1184 56.4246C78.6703 57.9135 77.4654 61.0216 74.9445 62.3224C72.4459 63.6108 69.2343 62.8811 67.75 62.4211C68.1795 60.8831 69.3456 57.6779 71.8482 56.3866C74.3555 55.0927 77.6259 55.9225 79.1184 56.4246ZM79.5586 50.9713C77.2345 52.5715 73.8855 52.1608 72.3418 51.8511C72.5986 50.3173 73.4016 47.0821 75.7381 45.4737C78.053 43.8812 81.3313 44.1994 82.8626 44.468C82.6305 46.048 81.8784 49.3745 79.5586 50.9713Z" fill="white"/>
</g>
<defs>
<clipPath id="clip0_61:3370">
<rect width="50" height="50" fill="white" transform="translate(35 35)"/>
</clipPath>
</defs>
</svg>
